HIERARCHY
ROOT Hips
{
	OFFSET 0.00000 0.00000 0.00000
	CHANNELS 6 Xposition Yposition Zposition Zrotation Yrotation Xrotation 
	JOINT LHipJoint
	{
		OFFSET 0 0 0
		CHANNELS 3 Zrotation Yrotation Xrotation
		JOINT LeftUpLeg
		{
			OFFSET 1.56857 -1.73443 1.15205
			CHANNELS 3 Zrotation Yrotation Xrotation
			JOINT LeftLeg
			{
				OFFSET 2.39362 -6.57643 0.00000
				CHANNELS 3 Zrotation Yrotation Xrotation
				JOINT LeftFoot
				{
					OFFSET 2.50952 -6.89485 0.00000
					CHANNELS 3 Zrotation Yrotation Xrotation
					JOINT LeftToeBase
					{
						OFFSET 0.17171 -0.47178 1.88682
						CHANNELS 3 Zrotation Yrotation Xrotation
						End Site
						{
							OFFSET 0.00000 -0.00000 0.98146
						}
					}
				}
			}
		}
	}
	JOINT RHipJoint
	{
		OFFSET 0 0 0
		CHANNELS 3 Zrotation Yrotation Xrotation
		JOINT RightUpLeg
		{
			OFFSET -1.28153 -1.73443 1.15205
			CHANNELS 3 Zrotation Yrotation Xrotation
			JOINT RightLeg
			{
				OFFSET -2.26861 -6.23296 0.00000
				CHANNELS 3 Zrotation Yrotation Xrotation
				JOINT RightFoot
				{
					OFFSET -2.54143 -6.98254 0.00000
					CHANNELS 3 Zrotation Yrotation Xrotation
					JOINT RightToeBase
					{
						OFFSET -0.23309 -0.64041 1.93119
						CHANNELS 3 Zrotation Yrotation Xrotation
						End Site
						{
							OFFSET -0.00000 -0.00000 1.02013
						}
					}
				}
			}
		}
	}
	JOINT LowerBack
	{
		OFFSET 0 0 0
		CHANNELS 3 Zrotation Yrotation Xrotation
		JOINT Spine
		{
			OFFSET -0.07096 2.10460 -0.27878
			CHANNELS 3 Zrotation Yrotation Xrotation
			JOINT Spine1
			{
				OFFSET -0.00826 2.13662 -0.08279
				CHANNELS 3 Zrotation Yrotation Xrotation
				JOINT Neck
				{
					OFFSET 0 0 0
					CHANNELS 3 Zrotation Yrotation Xrotation
					JOINT Neck1
					{
						OFFSET 0.03239 1.77799 0.24435
						CHANNELS 3 Zrotation Yrotation Xrotation
						JOINT Head
						{
							OFFSET 0.01026 1.74194 -0.49664
							CHANNELS 3 Zrotation Yrotation Xrotation
							End Site
							{
								OFFSET 0.00170 1.83057 -0.19653
							}
						}
					}
				}
				JOINT LeftShoulder
				{
					OFFSET 0 0 0
					CHANNELS 3 Zrotation Yrotation Xrotation
					JOINT LeftArm
					{
						OFFSET 3.19178 1.35907 -0.31412
						CHANNELS 3 Zrotation Yrotation Xrotation
						JOINT LeftForeArm
						{
							OFFSET 4.85247 -0.00000 -0.00000
							CHANNELS 3 Zrotation Yrotation Xrotation
							JOINT LeftHand
							{
								OFFSET 3.55584 -0.00000 0.00000
								CHANNELS 3 Zrotation Yrotation Xrotation
								JOINT LeftFingerBase
								{
									OFFSET 0 0 0
									CHANNELS 3 Zrotation Yrotation Xrotation
									JOINT LeftHandIndex1
									{
										OFFSET 0.69320 -0.00000 0.00000
										CHANNELS 3 Zrotation Yrotation Xrotation
										End Site
										{
											OFFSET 0.55888 -0.00000 0.00000
										}
									}
								}
								JOINT LThumb
								{
									OFFSET 0 0 0
									CHANNELS 3 Zrotation Yrotation Xrotation
									End Site
									{
										OFFSET 0.56741 -0.00000 0.56741
									}
								}
							}
						}
					}
				}
				JOINT RightShoulder
				{
					OFFSET 0 0 0
					CHANNELS 3 Zrotation Yrotation Xrotation
					JOINT RightArm
					{
						OFFSET -3.28999 1.24191 -0.26899
						CHANNELS 3 Zrotation Yrotation Xrotation
						JOINT RightForeArm
						{
							OFFSET -4.64462 -0.00000 0.00000
							CHANNELS 3 Zrotation Yrotation Xrotation
							JOINT RightHand
							{
								OFFSET -3.40703 -0.00000 0.00000
								CHANNELS 3 Zrotation Yrotation Xrotation
								JOINT RightFingerBase
								{
									OFFSET 0 0 0
									CHANNELS 3 Zrotation Yrotation Xrotation
									JOINT RightHandIndex1
									{
										OFFSET -0.61958 -0.00000 0.00000
										CHANNELS 3 Zrotation Yrotation Xrotation
										End Site
										{
											OFFSET -0.49952 -0.00000 0.00000
										}
									}
								}
								JOINT RThumb
								{
									OFFSET 0 0 0
									CHANNELS 3 Zrotation Yrotation Xrotation
									End Site
									{
										OFFSET -0.50715 -0.00000 0.50715
									}
								}
							}
						}
					}
				}
			}
		}
	}
}
MOTION
Frames: 8
Frame Time: .0083333
44.6177 17.1986 5.9778 358.1620 146.5140 359.9840 0.0000 0.0000 0.0000 -28.4415 -1.0149 16.2084 0.2286 3.0772 8.4936 0.6926 -3.0685 -14.9796 0.0013 0.2359 0.6482 0.0000 0.0000 0.0000 11.7662 -2.9015 -15.7041 -0.1161 -2.1969 6.0502 0.6480 14.5554 9.3460 -0.0028 0.3398 -0.9337 -12.6721 1.7852 5.4949 -2.3851 2.7850 6.8825 4.5110 1.1672 3.8135 9.7850 4.1092 -19.1858 -1.4839 3.9496 26.7019 -1.5063 2.8404 12.2627 0.0000 0.0000 0.0000 -2.0215 -47.8485 3.9002 24.7448 -35.9420 -8.1396 -0.0000 0.0000 -7.5152 17.6949 -24.2452 -7.4639 -7.1250 0.0000 -0.0000 -7.1586 4.8461 6.5809 0.0000 0.0000 0.0000 5.4729 55.1728 2.5809 -22.8301 33.9025 -7.0433 0.0000 -0.0000 -4.8302 -5.7457 -31.8009 3.0352 7.1250 -0.0000 -0.0000 29.6831 -59.3646 -11.0089
44.6846 17.1800 5.8807 357.2540 147.3570 359.5660 0.0000 0.0000 0.0000 -29.1604 -0.9834 16.4712 0.2341 3.1140 8.5964 0.6821 -3.6699 -14.7902 0.0000 -0.0309 -0.0849 0.0000 0.0000 0.0000 11.0849 -2.5109 -16.1671 -0.1187 -2.2212 6.1173 0.5510 13.9202 10.4474 -0.0484 -1.4192 3.9029 -13.7046 1.6590 5.4913 -2.2194 2.5454 6.6549 5.2569 1.0139 3.5938 9.4080 4.0953 -19.1581 -1.5791 4.1047 26.8945 -1.4538 2.8683 12.3319 0.0000 0.0000 0.0000 -2.9718 -47.5432 4.4055 24.7858 -35.9843 -8.1637 -0.0000 0.0000 -7.3315 17.6552 -24.2966 -7.4610 -7.1250 0.0000 -0.0000 -7.1870 4.7996 6.6137 0.0000 0.0000 0.0000 5.7466 55.3596 3.3268 -22.9131 33.9937 -7.0897 0.0000 -0.0000 -4.8192 -5.8362 -31.7616 3.0798 7.1250 -0.0000 -0.0000 29.5575 -59.3513 -10.9475
44.7387 17.1545 5.7797 357.2200 148.1360 359.4380 0.0000 0.0000 0.0000 -29.1437 -1.0469 17.1030 0.2357 3.1246 8.6258 0.6679 -4.2670 -14.5837 0.0104 0.6598 1.8132 0.0000 0.0000 0.0000 11.2790 -2.0747 -16.3995 -0.1265 -2.2926 6.3151 0.3631 12.6616 12.0443 -0.3991 -4.0561 11.2345 -12.8977 1.6736 5.3386 -2.4478 2.6589 6.8135 4.5781 1.0998 3.8497 9.8974 4.1499 -19.5060 -1.7154 4.0172 26.9474 -1.5951 2.8597 12.4366 0.0000 0.0000 0.0000 -2.3990 -47.9569 4.1949 24.8740 -36.0749 -8.2156 -0.0000 0.0000 -7.3947 17.5765 -24.2020 -7.3990 -7.1250 0.0000 -0.0000 -7.2283 4.9079 6.6375 0.0000 0.0000 0.0000 5.9356 55.0484 2.8670 -22.8247 33.8966 -7.0403 0.0000 -0.0000 -4.6999 -5.9497 -31.7807 3.1417 7.1250 -0.0000 -0.0000 29.4611 -59.3936 -10.9381
44.7931 17.1322 5.6756 356.6480 149.0190 359.1300 0.0000 0.0000 0.0000 -29.6583 -1.0786 17.5573 0.2487 3.2087 8.8604 0.6534 -5.1614 -14.3954 0.0465 1.3922 3.8285 0.0000 0.0000 0.0000 10.9305 -1.9337 -16.7924 -0.1356 -2.3735 6.5390 0.4352 13.4754 12.3110 -0.3309 -3.6971 10.2259 -13.1003 1.5144 4.9053 -2.4732 2.5640 7.0308 4.6854 1.0163 4.3499 10.2610 4.3557 -19.8270 -2.0420 4.2462 27.0510 -1.7362 2.9513 12.5776 0.0000 0.0000 0.0000 -2.2890 -48.0014 3.7594 24.8373 -36.0373 -8.1940 -0.0000 0.0000 -7.3264 17.5610 -24.2853 -7.4158 -7.1250 0.0000 -0.0000 -7.2441 4.8254 6.6637 0.0000 0.0000 0.0000 5.4599 55.1942 2.2354 -22.7661 33.8321 -7.0076 0.0000 -0.0000 -4.6297 -5.8992 -31.7900 3.1157 7.1250 -0.0000 -0.0000 29.5201 -59.3902 -10.9600
44.8506 17.1072 5.5701 356.2610 149.8440 358.8790 0.0000 0.0000 0.0000 -29.7201 -0.6786 17.8486 0.2612 3.2879 9.0812 0.6252 -6.0814 -14.1107 0.0215 0.9459 2.6001 0.0000 0.0000 0.0000 10.6760 -1.2092 -16.8423 -0.1399 -2.4102 6.6408 0.4051 13.3340 12.6542 -0.3081 -3.5687 9.8663 -13.1732 1.4065 4.8231 -2.4452 2.4316 7.0195 4.7611 0.9435 4.4063 9.6915 4.3483 -19.9062 -1.4058 4.2379 27.0974 -1.3969 2.9781 12.5809 0.0000 0.0000 0.0000 -2.5786 -47.7895 3.9295 24.9676 -36.1709 -8.2708 -0.0000 0.0000 -7.4036 17.5540 -24.2876 -7.4133 -7.1250 0.0000 -0.0000 -7.2485 4.8241 6.6680 0.0000 0.0000 0.0000 5.4108 55.2784 2.2539 -22.7840 33.8518 -7.0176 0.0000 -0.0000 -4.7007 -5.7650 -31.8268 3.0476 7.1250 -0.0000 -0.0000 29.6873 -59.3911 -11.0298
44.9161 17.0814 5.4618 355.9900 150.6530 358.6300 0.0000 0.0000 0.0000 -29.6355 -0.2689 18.3039 0.2600 3.2802 9.0600 0.5788 -6.8475 -13.6628 0.0065 0.5221 1.4346 0.0000 0.0000 0.0000 10.5040 -0.6873 -16.8712 -0.1492 -2.4888 6.8586 0.3148 12.8867 13.5498 -0.4022 -4.0718 11.2789 -13.1941 1.3606 4.8609 -2.3867 2.3500 6.9574 4.8341 0.9052 4.3288 9.9403 4.4518 -19.7950 -1.7796 4.4296 27.0239 -1.5507 3.0369 12.5570 -0.0000 -0.0000 0.0000 -2.7856 -47.5316 4.2564 25.1665 -36.3737 -8.3884 -0.0000 0.0000 -7.5947 17.5373 -24.2111 -7.3842 -7.1250 0.0000 -0.0000 -7.2531 4.9045 6.6611 -0.0000 -0.0000 0.0000 5.5705 55.2893 2.4364 -22.7693 33.8356 -7.0094 0.0000 -0.0000 -4.6931 -5.7535 -31.8243 3.0413 7.1250 -0.0000 -0.0000 29.6965 -59.3864 -11.0301
44.9859 17.0574 5.3537 355.9400 151.4080 358.5260 0.0000 0.0000 0.0000 -29.4436 -0.1434 18.8574 0.2574 3.2641 9.0149 0.5492 -7.4295 -13.4121 0.0024 0.3148 0.8650 0.0000 0.0000 0.0000 10.7067 -0.6697 -17.2581 -0.1725 -2.6755 7.3767 0.2759 13.0123 14.5091 -0.3821 -3.9696 10.9911 -13.1301 1.3376 4.8043 -2.2185 2.3055 6.9186 4.9792 0.8772 4.3187 10.1005 4.5237 -19.8476 -1.9790 4.5467 27.1334 -1.6316 3.0840 12.6295 0.0000 0.0000 0.0000 -3.0507 -48.3146 4.0385 24.5140 -35.7031 -8.0045 -0.0000 0.0000 -7.0070 17.6022 -24.2910 -7.4358 -7.1250 0.0000 -0.0000 -7.2192 4.8134 6.6420 0.0000 0.0000 0.0000 5.5793 55.3022 2.4839 -22.7212 33.7825 -6.9826 0.0000 -0.0000 -4.6330 -5.6922 -31.6834 2.9968 7.1250 -0.0000 -0.0000 29.6308 -59.2514 -10.9058
45.0528 17.0329 5.2470 355.9790 152.1930 358.5020 0.0000 0.0000 0.0000 -29.2250 -0.2004 19.4229 0.2566 3.2589 9.0005 0.5337 -7.7775 -13.2983 0.0004 -0.1363 -0.3745 0.0000 0.0000 0.0000 10.9111 -0.0631 -17.2944 -0.1927 -2.8271 7.7976 0.2230 12.7110 14.8672 -0.3439 -3.7683 10.4256 -12.9122 1.3283 4.7794 -2.0438 2.2671 6.8452 5.0446 0.8616 4.2514 10.0988 4.5377 -20.0137 -1.9816 4.5699 27.3479 -1.6236 3.1035 12.7516 -0.0000 -0.0000 0.0000 -3.1735 -47.9482 4.5694 24.7620 -35.9598 -8.1497 -0.0000 0.0000 -7.4528 17.7191 -24.2506 -7.4763 -7.1250 0.0000 -0.0000 -7.1441 4.8369 6.5686 -0.0000 -0.0000 0.0000 5.5740 55.0631 2.7032 -22.8360 33.9090 -7.0466 0.0000 -0.0000 -4.7835 -5.5730 -31.7164 2.9365 7.1250 -0.0000 -0.0000 29.7791 -59.2528 -10.9676
